# xmcd CD database file
#
# Track frame offsets:
#	150
#	2705
#	15072
#	21377
#	34025
#	45617
#	57642
#	70745
#	75680
#	88017
#	101207
#	112900
#	116402
#	128692
#
# Disc length: 1883 seconds
#
# Revision: 0
# Processed by: cddbd v1.4PL0 Copyright (c) Steve Scherf et al.
# Submitted via: CDex 1.40Release
#
DISCID=a807590e
DTITLE=Various Artist - Country Music Cavalcade - The Golden Gream of Hank Williams
DYEAR=1900
DGENRE=Country
TTITLE0=The True Story of Hank Williams Life 1
TTITLE1=If You Only Loved Me Half As Much
TTITLE2=The True Story of Hank Williams Life 2
TTITLE3=I'm So Lonesome I could Cry
TTITLE4=My Bucket's Got A Hole In It
TTITLE5=Take These Chains From My Heart
TTITLE6=Jambalaya (On The Bayou)
TTITLE7=The True Story Of Hank Williams Life 3
TTITLE8=I Saw The Light
TTITLE9=Wedding Bells
TTITLE10=A Mansion On the Hill
TTITLE11=The Tru Story Of Hank Williams Life 4
TTITLE12=Your Cheating Heart
TTITLE13=There'll Be No Teardrops Tonight
EXTD=ID3G: 2
EXTT0=
EXTT1=
EXTT2=
EXTT3=
EXTT4=
EXTT5=
EXTT6=
EXTT7=
EXTT8=
EXTT9=
EXTT10=
EXTT11=
EXTT12=
EXTT13=
PLAYORDER=
